<mxfile host="Electron" agent="Mozilla/5.0 (Windows NT 10.0; Win64; x64) AppleWebKit/537.36 (KHTML, like Gecko) draw.io/27.0.9 Chrome/134.0.6998.205 Electron/35.4.0 Safari/537.36" version="27.0.9">
  <diagram name="Page-1" id="ZmHVrnJbVUH_FI4HJnQH">
    <mxGraphModel dx="2415" dy="909" grid="0" gridSize="10" guides="1" tooltips="1" connect="1" arrows="1" fold="1" page="0" pageScale="1" pageWidth="10000" pageHeight="10000" background="none" math="0" shadow="0">
      <root>
        <mxCell id="0" />
        <mxCell id="1" parent="0" />
        <mxCell id="DzlO_YJWXGn263V3jJCu-15" value="UML Legend" style="shape=table;startSize=40;container=1;collapsible=0;childLayout=tableLayout;fontSize=11;fillColor=#eeeeee;strokeColor=#36393d;align=center;fontStyle=0;labelPosition=center;verticalLabelPosition=middle;verticalAlign=middle;fontFamily=Times New Roman;" parent="1" vertex="1">
          <mxGeometry x="45" y="33" width="701" height="900.75" as="geometry" />
        </mxCell>
        <mxCell id="DzlO_YJWXGn263V3jJCu-16" value="" style="shape=tableRow;horizontal=0;startSize=0;swimlaneHead=0;swimlaneBody=0;strokeColor=inherit;top=0;left=0;bottom=0;right=0;collapsible=0;dropTarget=0;fillColor=none;points=[[0,0.5],[1,0.5]];portConstraint=eastwest;fontSize=11;align=center;fontStyle=0;labelPosition=center;verticalLabelPosition=middle;verticalAlign=middle;fontFamily=Times New Roman;" parent="DzlO_YJWXGn263V3jJCu-15" vertex="1">
          <mxGeometry y="40" width="701" height="168" as="geometry" />
        </mxCell>
        <mxCell id="DzlO_YJWXGn263V3jJCu-17" value="" style="shape=partialRectangle;html=1;whiteSpace=wrap;connectable=0;strokeColor=#36393d;overflow=hidden;fillColor=#cdeb8b;top=0;left=0;bottom=0;right=0;pointerEvents=1;fontSize=11;align=center;fontStyle=0;labelPosition=center;verticalLabelPosition=middle;verticalAlign=middle;fontFamily=Times New Roman;" parent="DzlO_YJWXGn263V3jJCu-16" vertex="1">
          <mxGeometry width="245" height="168" as="geometry">
            <mxRectangle width="245" height="168" as="alternateBounds" />
          </mxGeometry>
        </mxCell>
        <mxCell id="DzlO_YJWXGn263V3jJCu-18" value="Start" style="shape=partialRectangle;html=1;whiteSpace=wrap;connectable=0;strokeColor=#36393d;overflow=hidden;fillColor=#cdeb8b;top=0;left=0;bottom=0;right=0;pointerEvents=1;fontSize=11;align=center;fontStyle=1;labelPosition=center;verticalLabelPosition=middle;verticalAlign=middle;fontFamily=Times New Roman;" parent="DzlO_YJWXGn263V3jJCu-16" vertex="1">
          <mxGeometry x="245" width="159" height="168" as="geometry">
            <mxRectangle width="159" height="168" as="alternateBounds" />
          </mxGeometry>
        </mxCell>
        <mxCell id="DzlO_YJWXGn263V3jJCu-19" value="The Start was represented by Circle and the purpose is to trigger the starting point of the process." style="shape=partialRectangle;html=1;whiteSpace=wrap;connectable=0;strokeColor=#36393d;overflow=hidden;fillColor=#cdeb8b;top=0;left=0;bottom=0;right=0;pointerEvents=1;fontSize=11;align=center;fontStyle=0;labelPosition=center;verticalLabelPosition=middle;verticalAlign=middle;fontFamily=Times New Roman;" parent="DzlO_YJWXGn263V3jJCu-16" vertex="1">
          <mxGeometry x="404" width="297" height="168" as="geometry">
            <mxRectangle width="297" height="168" as="alternateBounds" />
          </mxGeometry>
        </mxCell>
        <mxCell id="DzlO_YJWXGn263V3jJCu-20" value="" style="shape=tableRow;horizontal=0;startSize=0;swimlaneHead=0;swimlaneBody=0;strokeColor=inherit;top=0;left=0;bottom=0;right=0;collapsible=0;dropTarget=0;fillColor=none;points=[[0,0.5],[1,0.5]];portConstraint=eastwest;fontSize=11;align=center;fontStyle=0;labelPosition=center;verticalLabelPosition=middle;verticalAlign=middle;fontFamily=Times New Roman;" parent="DzlO_YJWXGn263V3jJCu-15" vertex="1">
          <mxGeometry y="208" width="701" height="171" as="geometry" />
        </mxCell>
        <mxCell id="DzlO_YJWXGn263V3jJCu-21" value="" style="shape=partialRectangle;html=1;whiteSpace=wrap;connectable=0;strokeColor=#36393d;overflow=hidden;fillColor=#cdeb8b;top=0;left=0;bottom=0;right=0;pointerEvents=1;fontSize=11;align=center;fontStyle=0;labelPosition=center;verticalLabelPosition=middle;verticalAlign=middle;fontFamily=Times New Roman;" parent="DzlO_YJWXGn263V3jJCu-20" vertex="1">
          <mxGeometry width="245" height="171" as="geometry">
            <mxRectangle width="245" height="171" as="alternateBounds" />
          </mxGeometry>
        </mxCell>
        <mxCell id="DzlO_YJWXGn263V3jJCu-22" value="Task" style="shape=partialRectangle;html=1;whiteSpace=wrap;connectable=0;strokeColor=#36393d;overflow=hidden;fillColor=#cdeb8b;top=0;left=0;bottom=0;right=0;pointerEvents=1;fontSize=11;align=center;fontStyle=1;labelPosition=center;verticalLabelPosition=middle;verticalAlign=middle;fontFamily=Times New Roman;" parent="DzlO_YJWXGn263V3jJCu-20" vertex="1">
          <mxGeometry x="245" width="159" height="171" as="geometry">
            <mxRectangle width="159" height="171" as="alternateBounds" />
          </mxGeometry>
        </mxCell>
        <mxCell id="DzlO_YJWXGn263V3jJCu-23" value="The Task was represented by Rectangle and the purpose is to represent the Activity." style="shape=partialRectangle;html=1;whiteSpace=wrap;connectable=0;strokeColor=#36393d;overflow=hidden;fillColor=#cdeb8b;top=0;left=0;bottom=0;right=0;pointerEvents=1;fontSize=11;align=center;fontStyle=0;labelPosition=center;verticalLabelPosition=middle;verticalAlign=middle;fontFamily=Times New Roman;" parent="DzlO_YJWXGn263V3jJCu-20" vertex="1">
          <mxGeometry x="404" width="297" height="171" as="geometry">
            <mxRectangle width="297" height="171" as="alternateBounds" />
          </mxGeometry>
        </mxCell>
        <mxCell id="DzlO_YJWXGn263V3jJCu-24" value="" style="shape=tableRow;horizontal=0;startSize=0;swimlaneHead=0;swimlaneBody=0;strokeColor=inherit;top=0;left=0;bottom=0;right=0;collapsible=0;dropTarget=0;fillColor=none;points=[[0,0.5],[1,0.5]];portConstraint=eastwest;fontSize=11;align=center;fontStyle=0;labelPosition=center;verticalLabelPosition=middle;verticalAlign=middle;fontFamily=Times New Roman;" parent="DzlO_YJWXGn263V3jJCu-15" vertex="1">
          <mxGeometry y="379" width="701" height="174" as="geometry" />
        </mxCell>
        <mxCell id="DzlO_YJWXGn263V3jJCu-25" value="" style="shape=partialRectangle;html=1;whiteSpace=wrap;connectable=0;strokeColor=#36393d;overflow=hidden;fillColor=#cdeb8b;top=0;left=0;bottom=0;right=0;pointerEvents=1;fontSize=11;align=center;fontStyle=0;labelPosition=center;verticalLabelPosition=middle;verticalAlign=middle;fontFamily=Times New Roman;" parent="DzlO_YJWXGn263V3jJCu-24" vertex="1">
          <mxGeometry width="245" height="174" as="geometry">
            <mxRectangle width="245" height="174" as="alternateBounds" />
          </mxGeometry>
        </mxCell>
        <mxCell id="DzlO_YJWXGn263V3jJCu-26" value="Gateway" style="shape=partialRectangle;html=1;whiteSpace=wrap;connectable=0;strokeColor=#36393d;overflow=hidden;fillColor=#cdeb8b;top=0;left=0;bottom=0;right=0;pointerEvents=1;fontSize=11;align=center;fontStyle=1;labelPosition=center;verticalLabelPosition=middle;verticalAlign=middle;fontFamily=Times New Roman;" parent="DzlO_YJWXGn263V3jJCu-24" vertex="1">
          <mxGeometry x="245" width="159" height="174" as="geometry">
            <mxRectangle width="159" height="174" as="alternateBounds" />
          </mxGeometry>
        </mxCell>
        <mxCell id="DzlO_YJWXGn263V3jJCu-27" value="The Gateway represented by Diamond and the Purpose is to represent conditions." style="shape=partialRectangle;html=1;whiteSpace=wrap;connectable=0;strokeColor=#36393d;overflow=hidden;fillColor=#cdeb8b;top=0;left=0;bottom=0;right=0;pointerEvents=1;fontSize=11;align=center;fontStyle=0;labelPosition=center;verticalLabelPosition=middle;verticalAlign=middle;fontFamily=Times New Roman;" parent="DzlO_YJWXGn263V3jJCu-24" vertex="1">
          <mxGeometry x="404" width="297" height="174" as="geometry">
            <mxRectangle width="297" height="174" as="alternateBounds" />
          </mxGeometry>
        </mxCell>
        <mxCell id="DzlO_YJWXGn263V3jJCu-50" value="" style="shape=tableRow;horizontal=0;startSize=0;swimlaneHead=0;swimlaneBody=0;strokeColor=inherit;top=0;left=0;bottom=0;right=0;collapsible=0;dropTarget=0;fillColor=none;points=[[0,0.5],[1,0.5]];portConstraint=eastwest;fontSize=11;align=center;fontStyle=0;labelPosition=center;verticalLabelPosition=middle;verticalAlign=middle;fontFamily=Times New Roman;" parent="DzlO_YJWXGn263V3jJCu-15" vertex="1">
          <mxGeometry y="553" width="701" height="174" as="geometry" />
        </mxCell>
        <mxCell id="DzlO_YJWXGn263V3jJCu-51" value="" style="shape=partialRectangle;html=1;whiteSpace=wrap;connectable=0;strokeColor=#36393d;overflow=hidden;fillColor=#cdeb8b;top=0;left=0;bottom=0;right=0;pointerEvents=1;fontSize=11;align=center;fontStyle=0;labelPosition=center;verticalLabelPosition=middle;verticalAlign=middle;fontFamily=Times New Roman;" parent="DzlO_YJWXGn263V3jJCu-50" vertex="1">
          <mxGeometry width="245" height="174" as="geometry">
            <mxRectangle width="245" height="174" as="alternateBounds" />
          </mxGeometry>
        </mxCell>
        <mxCell id="DzlO_YJWXGn263V3jJCu-52" value="End Event" style="shape=partialRectangle;html=1;whiteSpace=wrap;connectable=0;strokeColor=#36393d;overflow=hidden;fillColor=#cdeb8b;top=0;left=0;bottom=0;right=0;pointerEvents=1;fontSize=11;align=center;fontStyle=1;labelPosition=center;verticalLabelPosition=middle;verticalAlign=middle;fontFamily=Times New Roman;" parent="DzlO_YJWXGn263V3jJCu-50" vertex="1">
          <mxGeometry x="245" width="159" height="174" as="geometry">
            <mxRectangle width="159" height="174" as="alternateBounds" />
          </mxGeometry>
        </mxCell>
        <mxCell id="DzlO_YJWXGn263V3jJCu-53" value="The End Event represented by Ring Circle and the purpose is to end a Activity." style="shape=partialRectangle;html=1;whiteSpace=wrap;connectable=0;strokeColor=#36393d;overflow=hidden;fillColor=#cdeb8b;top=0;left=0;bottom=0;right=0;pointerEvents=1;fontSize=11;align=center;fontStyle=0;labelPosition=center;verticalLabelPosition=middle;verticalAlign=middle;fontFamily=Times New Roman;" parent="DzlO_YJWXGn263V3jJCu-50" vertex="1">
          <mxGeometry x="404" width="297" height="174" as="geometry">
            <mxRectangle width="297" height="174" as="alternateBounds" />
          </mxGeometry>
        </mxCell>
        <mxCell id="fxXYQwQmjacuaRkCVRKY-60" style="shape=tableRow;horizontal=0;startSize=0;swimlaneHead=0;swimlaneBody=0;strokeColor=inherit;top=0;left=0;bottom=0;right=0;collapsible=0;dropTarget=0;fillColor=none;points=[[0,0.5],[1,0.5]];portConstraint=eastwest;fontSize=11;align=center;fontStyle=0;labelPosition=center;verticalLabelPosition=middle;verticalAlign=middle;fontFamily=Times New Roman;" parent="DzlO_YJWXGn263V3jJCu-15" vertex="1">
          <mxGeometry y="727" width="701" height="174" as="geometry" />
        </mxCell>
        <mxCell id="fxXYQwQmjacuaRkCVRKY-61" style="shape=partialRectangle;html=1;whiteSpace=wrap;connectable=0;strokeColor=#36393d;overflow=hidden;fillColor=#cdeb8b;top=0;left=0;bottom=0;right=0;pointerEvents=1;fontSize=11;align=center;fontStyle=0;labelPosition=center;verticalLabelPosition=middle;verticalAlign=middle;fontFamily=Times New Roman;" parent="fxXYQwQmjacuaRkCVRKY-60" vertex="1">
          <mxGeometry width="245" height="174" as="geometry">
            <mxRectangle width="245" height="174" as="alternateBounds" />
          </mxGeometry>
        </mxCell>
        <mxCell id="fxXYQwQmjacuaRkCVRKY-62" value="Flow" style="shape=partialRectangle;html=1;whiteSpace=wrap;connectable=0;strokeColor=#36393d;overflow=hidden;fillColor=#cdeb8b;top=0;left=0;bottom=0;right=0;pointerEvents=1;fontSize=11;align=center;fontStyle=1;labelPosition=center;verticalLabelPosition=middle;verticalAlign=middle;fontFamily=Times New Roman;" parent="fxXYQwQmjacuaRkCVRKY-60" vertex="1">
          <mxGeometry x="245" width="159" height="174" as="geometry">
            <mxRectangle width="159" height="174" as="alternateBounds" />
          </mxGeometry>
        </mxCell>
        <mxCell id="fxXYQwQmjacuaRkCVRKY-63" value="The Flow represented by Arrow and the purpose is to connect and provide the sequences of the other shapes." style="shape=partialRectangle;html=1;whiteSpace=wrap;connectable=0;strokeColor=#36393d;overflow=hidden;fillColor=#cdeb8b;top=0;left=0;bottom=0;right=0;pointerEvents=1;fontSize=11;align=center;fontStyle=0;labelPosition=center;verticalLabelPosition=middle;verticalAlign=middle;fontFamily=Times New Roman;" parent="fxXYQwQmjacuaRkCVRKY-60" vertex="1">
          <mxGeometry x="404" width="297" height="174" as="geometry">
            <mxRectangle width="297" height="174" as="alternateBounds" />
          </mxGeometry>
        </mxCell>
        <mxCell id="mGP2Hr6OGVJvScYrKdYI-15" value="" style="points=[[0.145,0.145,0],[0.5,0,0],[0.855,0.145,0],[1,0.5,0],[0.855,0.855,0],[0.5,1,0],[0.145,0.855,0],[0,0.5,0]];shape=mxgraph.bpmn.event;html=1;verticalLabelPosition=middle;labelBackgroundColor=#ffffff;verticalAlign=middle;align=center;perimeter=ellipsePerimeter;outlineConnect=0;aspect=fixed;outline=standard;symbol=general;fillColor=#dae8fc;strokeColor=#6c8ebf;fontStyle=0;fontSize=11;labelPosition=center;fontFamily=Times New Roman;" parent="1" vertex="1">
          <mxGeometry x="138" y="118" width="50" height="50" as="geometry" />
        </mxCell>
        <mxCell id="mGP2Hr6OGVJvScYrKdYI-16" value="" style="points=[[0.145,0.145,0],[0.5,0,0],[0.855,0.145,0],[1,0.5,0],[0.855,0.855,0],[0.5,1,0],[0.145,0.855,0],[0,0.5,0]];shape=mxgraph.bpmn.event;html=1;verticalLabelPosition=middle;labelBackgroundColor=#ffffff;verticalAlign=middle;align=center;perimeter=ellipsePerimeter;outlineConnect=0;aspect=fixed;outline=end;symbol=terminate;fontStyle=0;fontSize=11;labelPosition=center;fontFamily=Times New Roman;" parent="1" vertex="1">
          <mxGeometry x="148" y="636" width="50" height="50" as="geometry" />
        </mxCell>
        <mxCell id="fxXYQwQmjacuaRkCVRKY-1" value="" style="points=[[0.25,0,0],[0.5,0,0],[0.75,0,0],[1,0.25,0],[1,0.5,0],[1,0.75,0],[0.75,1,0],[0.5,1,0],[0.25,1,0],[0,0.75,0],[0,0.5,0],[0,0.25,0]];shape=mxgraph.bpmn.task2;whiteSpace=wrap;rectStyle=rounded;size=10;html=1;container=1;expand=0;collapsible=0;taskMarker=abstract;fillColor=#f8cecc;strokeColor=#b85450;align=center;fontStyle=0;fontSize=11;labelPosition=center;verticalLabelPosition=middle;verticalAlign=middle;fontFamily=Times New Roman;" parent="1" vertex="1">
          <mxGeometry x="99" y="281" width="120" height="80" as="geometry" />
        </mxCell>
        <mxCell id="fxXYQwQmjacuaRkCVRKY-16" style="edgeStyle=orthogonalEdgeStyle;rounded=0;orthogonalLoop=1;jettySize=auto;html=1;fillColor=#ffe6cc;strokeColor=#FF0000;flowAnimation=1;fontFamily=Times New Roman;fontStyle=1" parent="1" source="mGP2Hr6OGVJvScYrKdYI-18" edge="1">
          <mxGeometry relative="1" as="geometry">
            <mxPoint x="263" y="1811" as="targetPoint" />
          </mxGeometry>
        </mxCell>
        <mxCell id="mGP2Hr6OGVJvScYrKdYI-18" value="Receive Call&amp;nbsp;" style="points=[[0.25,0,0],[0.5,0,0],[0.75,0,0],[1,0.25,0],[1,0.5,0],[1,0.75,0],[0.75,1,0],[0.5,1,0],[0.25,1,0],[0,0.75,0],[0,0.5,0],[0,0.25,0]];shape=mxgraph.bpmn.task2;whiteSpace=wrap;rectStyle=rounded;size=10;html=1;container=1;expand=0;collapsible=0;taskMarker=receive;fillColor=#f8cecc;strokeColor=#b85450;fontFamily=Times New Roman;fontStyle=1" parent="1" vertex="1">
          <mxGeometry x="99" y="1671" width="120" height="80" as="geometry" />
        </mxCell>
        <mxCell id="mGP2Hr6OGVJvScYrKdYI-19" style="edgeStyle=orthogonalEdgeStyle;rounded=0;orthogonalLoop=1;jettySize=auto;html=1;entryX=0;entryY=0.5;entryDx=0;entryDy=0;entryPerimeter=0;strokeColor=#FF0000;flowAnimation=1;fontFamily=Times New Roman;fontStyle=1" parent="1" target="mGP2Hr6OGVJvScYrKdYI-18" edge="1">
          <mxGeometry relative="1" as="geometry">
            <mxPoint x="39" y="1711" as="sourcePoint" />
          </mxGeometry>
        </mxCell>
        <mxCell id="mGP2Hr6OGVJvScYrKdYI-17" value="Start" style="points=[[0.145,0.145,0],[0.5,0,0],[0.855,0.145,0],[1,0.5,0],[0.855,0.855,0],[0.5,1,0],[0.145,0.855,0],[0,0.5,0]];shape=mxgraph.bpmn.event;html=1;verticalLabelPosition=bottom;labelBackgroundColor=#ffffff;verticalAlign=top;align=center;perimeter=ellipsePerimeter;outlineConnect=0;aspect=fixed;outline=standard;symbol=general;fillColor=#dae8fc;strokeColor=#6c8ebf;fontFamily=Garamond;fontStyle=1" parent="1" vertex="1">
          <mxGeometry x="-5" y="1688" width="50" height="50" as="geometry" />
        </mxCell>
        <mxCell id="fxXYQwQmjacuaRkCVRKY-9" value="Agent Available?" style="points=[[0.25,0.25,0],[0.5,0,0],[0.75,0.25,0],[1,0.5,0],[0.75,0.75,0],[0.5,1,0],[0.25,0.75,0],[0,0.5,0]];shape=mxgraph.bpmn.gateway2;html=1;verticalLabelPosition=bottom;labelBackgroundColor=#ffffff;verticalAlign=top;align=center;perimeter=rhombusPerimeter;outlineConnect=0;outline=none;symbol=none;gwType=exclusive;fillColor=#fff2cc;strokeColor=#d6b656;fontFamily=Times New Roman;fontStyle=1" parent="1" vertex="1">
          <mxGeometry x="235" y="1812" width="50" height="50" as="geometry" />
        </mxCell>
        <mxCell id="fxXYQwQmjacuaRkCVRKY-11" style="edgeStyle=orthogonalEdgeStyle;rounded=0;orthogonalLoop=1;jettySize=auto;html=1;entryX=0;entryY=0.5;entryDx=0;entryDy=0;entryPerimeter=0;strokeColor=#FF0000;flowAnimation=1;fontFamily=Times New Roman;fontStyle=1" parent="1" source="fxXYQwQmjacuaRkCVRKY-9" edge="1">
          <mxGeometry relative="1" as="geometry">
            <mxPoint x="404" y="1837" as="targetPoint" />
          </mxGeometry>
        </mxCell>
        <mxCell id="fxXYQwQmjacuaRkCVRKY-14" value="Yes" style="edgeLabel;html=1;align=center;verticalAlign=middle;resizable=0;points=[];fontFamily=Times New Roman;fontStyle=1" parent="fxXYQwQmjacuaRkCVRKY-11" vertex="1" connectable="0">
          <mxGeometry x="-0.0427" y="-1" relative="1" as="geometry">
            <mxPoint as="offset" />
          </mxGeometry>
        </mxCell>
        <mxCell id="fxXYQwQmjacuaRkCVRKY-19" style="edgeStyle=orthogonalEdgeStyle;rounded=0;orthogonalLoop=1;jettySize=auto;html=1;entryX=0;entryY=0.5;entryDx=0;entryDy=0;entryPerimeter=0;strokeColor=#FF0000;flowAnimation=1;fontFamily=Times New Roman;fontStyle=1" parent="1" edge="1">
          <mxGeometry relative="1" as="geometry">
            <mxPoint x="524" y="1837" as="sourcePoint" />
            <mxPoint x="587" y="1837" as="targetPoint" />
          </mxGeometry>
        </mxCell>
        <mxCell id="fxXYQwQmjacuaRkCVRKY-21" style="edgeStyle=orthogonalEdgeStyle;rounded=0;orthogonalLoop=1;jettySize=auto;html=1;entryX=1.025;entryY=0.4;entryDx=0;entryDy=0;entryPerimeter=0;strokeColor=#FF0000;flowAnimation=1;fontFamily=Times New Roman;fontStyle=1" parent="1" source="fxXYQwQmjacuaRkCVRKY-9" edge="1">
          <mxGeometry relative="1" as="geometry">
            <mxPoint x="155" y="1837" as="targetPoint" />
          </mxGeometry>
        </mxCell>
        <mxCell id="fxXYQwQmjacuaRkCVRKY-30" value="No" style="edgeLabel;html=1;align=center;verticalAlign=middle;resizable=0;points=[];fontFamily=Times New Roman;fontStyle=1" parent="fxXYQwQmjacuaRkCVRKY-21" vertex="1" connectable="0">
          <mxGeometry x="-0.1553" y="2" relative="1" as="geometry">
            <mxPoint as="offset" />
          </mxGeometry>
        </mxCell>
        <mxCell id="fxXYQwQmjacuaRkCVRKY-23" value="End" style="points=[[0.145,0.145,0],[0.5,0,0],[0.855,0.145,0],[1,0.5,0],[0.855,0.855,0],[0.5,1,0],[0.145,0.855,0],[0,0.5,0]];shape=mxgraph.bpmn.event;html=1;verticalLabelPosition=bottom;labelBackgroundColor=#ffffff;verticalAlign=top;align=center;perimeter=ellipsePerimeter;outlineConnect=0;aspect=fixed;outline=end;symbol=terminate;fontFamily=Times New Roman;fontStyle=1" parent="1" vertex="1">
          <mxGeometry x="103" y="1812" width="50" height="50" as="geometry" />
        </mxCell>
        <mxCell id="fxXYQwQmjacuaRkCVRKY-24" value="Service Request or Inquire" style="points=[[0.25,0.25,0],[0.5,0,0],[0.75,0.25,0],[1,0.5,0],[0.75,0.75,0],[0.5,1,0],[0.25,0.75,0],[0,0.5,0]];shape=mxgraph.bpmn.gateway2;html=1;verticalLabelPosition=bottom;labelBackgroundColor=#ffffff;verticalAlign=top;align=center;perimeter=rhombusPerimeter;outlineConnect=0;outline=none;symbol=none;gwType=exclusive;fillColor=#fff2cc;strokeColor=#d6b656;fontFamily=Times New Roman;fontStyle=1" parent="1" vertex="1">
          <mxGeometry x="622" y="1942" width="50" height="50" as="geometry" />
        </mxCell>
        <mxCell id="fxXYQwQmjacuaRkCVRKY-26" value="Ask Customer Information" style="points=[[0.25,0,0],[0.5,0,0],[0.75,0,0],[1,0.25,0],[1,0.5,0],[1,0.75,0],[0.75,1,0],[0.5,1,0],[0.25,1,0],[0,0.75,0],[0,0.5,0],[0,0.25,0]];shape=mxgraph.bpmn.task2;whiteSpace=wrap;rectStyle=rounded;size=10;html=1;container=1;expand=0;collapsible=0;taskMarker=abstract;isLoopStandard=1;fillColor=#f8cecc;strokeColor=#b85450;fontFamily=Times New Roman;fontStyle=1" parent="1" vertex="1">
          <mxGeometry x="403" y="1802" width="120" height="80" as="geometry" />
        </mxCell>
        <mxCell id="fxXYQwQmjacuaRkCVRKY-27" value="Ask Customer Concerns" style="points=[[0.25,0,0],[0.5,0,0],[0.75,0,0],[1,0.25,0],[1,0.5,0],[1,0.75,0],[0.75,1,0],[0.5,1,0],[0.25,1,0],[0,0.75,0],[0,0.5,0],[0,0.25,0]];shape=mxgraph.bpmn.task2;whiteSpace=wrap;rectStyle=rounded;size=10;html=1;container=1;expand=0;collapsible=0;taskMarker=abstract;isLoopStandard=1;fillColor=#f8cecc;strokeColor=#b85450;fontFamily=Times New Roman;fontStyle=1" parent="1" vertex="1">
          <mxGeometry x="587" y="1802" width="120" height="80" as="geometry" />
        </mxCell>
        <mxCell id="fxXYQwQmjacuaRkCVRKY-29" style="edgeStyle=orthogonalEdgeStyle;rounded=0;orthogonalLoop=1;jettySize=auto;html=1;entryX=0.5;entryY=0;entryDx=0;entryDy=0;entryPerimeter=0;strokeColor=#FF0000;flowAnimation=1;fontFamily=Times New Roman;fontStyle=1" parent="1" source="fxXYQwQmjacuaRkCVRKY-27" target="fxXYQwQmjacuaRkCVRKY-24" edge="1">
          <mxGeometry relative="1" as="geometry" />
        </mxCell>
        <mxCell id="fxXYQwQmjacuaRkCVRKY-31" value="Prepare Request" style="points=[[0.25,0,0],[0.5,0,0],[0.75,0,0],[1,0.25,0],[1,0.5,0],[1,0.75,0],[0.75,1,0],[0.5,1,0],[0.25,1,0],[0,0.75,0],[0,0.5,0],[0,0.25,0]];shape=mxgraph.bpmn.task2;whiteSpace=wrap;rectStyle=rounded;size=10;html=1;container=1;expand=0;collapsible=0;taskMarker=user;fillColor=#f8cecc;strokeColor=#b85450;fontFamily=Times New Roman;fontStyle=1" parent="1" vertex="1">
          <mxGeometry x="409" y="2039" width="120" height="80" as="geometry" />
        </mxCell>
        <mxCell id="fxXYQwQmjacuaRkCVRKY-32" style="edgeStyle=orthogonalEdgeStyle;rounded=0;orthogonalLoop=1;jettySize=auto;html=1;entryX=0.5;entryY=0;entryDx=0;entryDy=0;entryPerimeter=0;strokeColor=#FF0000;flowAnimation=1;fontFamily=Times New Roman;fontStyle=1" parent="1" source="fxXYQwQmjacuaRkCVRKY-24" target="fxXYQwQmjacuaRkCVRKY-31" edge="1">
          <mxGeometry relative="1" as="geometry" />
        </mxCell>
        <mxCell id="fxXYQwQmjacuaRkCVRKY-33" value="Service Request" style="edgeLabel;html=1;align=center;verticalAlign=middle;resizable=0;points=[];fontFamily=Times New Roman;fontStyle=1" parent="fxXYQwQmjacuaRkCVRKY-32" vertex="1" connectable="0">
          <mxGeometry x="-0.1378" y="-1" relative="1" as="geometry">
            <mxPoint as="offset" />
          </mxGeometry>
        </mxCell>
        <mxCell id="fxXYQwQmjacuaRkCVRKY-34" value="Forward or Proceed" style="points=[[0.25,0.25,0],[0.5,0,0],[0.75,0.25,0],[1,0.5,0],[0.75,0.75,0],[0.5,1,0],[0.25,0.75,0],[0,0.5,0]];shape=mxgraph.bpmn.gateway2;html=1;verticalLabelPosition=bottom;labelBackgroundColor=#ffffff;verticalAlign=top;align=center;perimeter=rhombusPerimeter;outlineConnect=0;outline=none;symbol=none;gwType=exclusive;fillColor=#fff2cc;strokeColor=#d6b656;fontFamily=Times New Roman;fontStyle=1" parent="1" vertex="1">
          <mxGeometry x="444" y="2179" width="50" height="50" as="geometry" />
        </mxCell>
        <mxCell id="fxXYQwQmjacuaRkCVRKY-35" style="edgeStyle=orthogonalEdgeStyle;rounded=0;orthogonalLoop=1;jettySize=auto;html=1;entryX=0.5;entryY=0;entryDx=0;entryDy=0;entryPerimeter=0;strokeColor=#FF0000;flowAnimation=1;fontFamily=Times New Roman;fontStyle=1" parent="1" source="fxXYQwQmjacuaRkCVRKY-31" target="fxXYQwQmjacuaRkCVRKY-34" edge="1">
          <mxGeometry relative="1" as="geometry" />
        </mxCell>
        <mxCell id="fxXYQwQmjacuaRkCVRKY-41" style="edgeStyle=orthogonalEdgeStyle;rounded=0;orthogonalLoop=1;jettySize=auto;html=1;strokeColor=#FF0000;flowAnimation=1;fontFamily=Times New Roman;fontStyle=1" parent="1" source="fxXYQwQmjacuaRkCVRKY-36" target="fxXYQwQmjacuaRkCVRKY-39" edge="1">
          <mxGeometry relative="1" as="geometry" />
        </mxCell>
        <mxCell id="fxXYQwQmjacuaRkCVRKY-36" value="Forward to another Agent" style="points=[[0.25,0,0],[0.5,0,0],[0.75,0,0],[1,0.25,0],[1,0.5,0],[1,0.75,0],[0.75,1,0],[0.5,1,0],[0.25,1,0],[0,0.75,0],[0,0.5,0],[0,0.25,0]];shape=mxgraph.bpmn.task2;whiteSpace=wrap;rectStyle=rounded;size=10;html=1;container=1;expand=0;collapsible=0;taskMarker=businessRule;fillColor=#f8cecc;strokeColor=#b85450;fontFamily=Times New Roman;fontStyle=1" parent="1" vertex="1">
          <mxGeometry x="604" y="2164" width="120" height="80" as="geometry" />
        </mxCell>
        <mxCell id="fxXYQwQmjacuaRkCVRKY-37" style="edgeStyle=orthogonalEdgeStyle;rounded=0;orthogonalLoop=1;jettySize=auto;html=1;entryX=0;entryY=0.5;entryDx=0;entryDy=0;entryPerimeter=0;strokeColor=#FF0000;flowAnimation=1;fontFamily=Times New Roman;fontStyle=1" parent="1" source="fxXYQwQmjacuaRkCVRKY-34" target="fxXYQwQmjacuaRkCVRKY-36" edge="1">
          <mxGeometry relative="1" as="geometry" />
        </mxCell>
        <mxCell id="fxXYQwQmjacuaRkCVRKY-40" value="Forward" style="edgeLabel;html=1;align=center;verticalAlign=middle;resizable=0;points=[];fontFamily=Times New Roman;fontStyle=1" parent="fxXYQwQmjacuaRkCVRKY-37" vertex="1" connectable="0">
          <mxGeometry x="-0.4526" y="-2" relative="1" as="geometry">
            <mxPoint as="offset" />
          </mxGeometry>
        </mxCell>
        <mxCell id="fxXYQwQmjacuaRkCVRKY-39" value="End" style="points=[[0.145,0.145,0],[0.5,0,0],[0.855,0.145,0],[1,0.5,0],[0.855,0.855,0],[0.5,1,0],[0.145,0.855,0],[0,0.5,0]];shape=mxgraph.bpmn.event;html=1;verticalLabelPosition=bottom;labelBackgroundColor=#ffffff;verticalAlign=top;align=center;perimeter=ellipsePerimeter;outlineConnect=0;aspect=fixed;outline=end;symbol=terminate;fontFamily=Times New Roman;fontStyle=1" parent="1" vertex="1">
          <mxGeometry x="776" y="2179" width="50" height="50" as="geometry" />
        </mxCell>
        <mxCell id="fxXYQwQmjacuaRkCVRKY-42" value="Perform Task" style="points=[[0.25,0,0],[0.5,0,0],[0.75,0,0],[1,0.25,0],[1,0.5,0],[1,0.75,0],[0.75,1,0],[0.5,1,0],[0.25,1,0],[0,0.75,0],[0,0.5,0],[0,0.25,0]];shape=mxgraph.bpmn.task2;whiteSpace=wrap;rectStyle=rounded;size=10;html=1;container=1;expand=0;collapsible=0;taskMarker=abstract;fillColor=#f8cecc;strokeColor=#b85450;fontFamily=Times New Roman;fontStyle=1" parent="1" vertex="1">
          <mxGeometry x="261" y="2287" width="120" height="80" as="geometry" />
        </mxCell>
        <mxCell id="fxXYQwQmjacuaRkCVRKY-43" value="Proceed" style="edgeStyle=orthogonalEdgeStyle;rounded=0;orthogonalLoop=1;jettySize=auto;html=1;entryX=0.5;entryY=0;entryDx=0;entryDy=0;entryPerimeter=0;strokeColor=#FF0000;flowAnimation=1;fontFamily=Times New Roman;fontStyle=1" parent="1" source="fxXYQwQmjacuaRkCVRKY-34" target="fxXYQwQmjacuaRkCVRKY-42" edge="1">
          <mxGeometry relative="1" as="geometry" />
        </mxCell>
        <mxCell id="fxXYQwQmjacuaRkCVRKY-45" style="edgeStyle=orthogonalEdgeStyle;rounded=0;orthogonalLoop=1;jettySize=auto;html=1;entryX=0.5;entryY=0;entryDx=0;entryDy=0;entryPerimeter=0;strokeColor=#FF0000;flowAnimation=1;fontFamily=Times New Roman;fontStyle=1" parent="1" source="fxXYQwQmjacuaRkCVRKY-42" edge="1">
          <mxGeometry relative="1" as="geometry">
            <mxPoint x="321" y="2432" as="targetPoint" />
          </mxGeometry>
        </mxCell>
        <mxCell id="fxXYQwQmjacuaRkCVRKY-46" value="Provide Feedback" style="points=[[0.25,0,0],[0.5,0,0],[0.75,0,0],[1,0.25,0],[1,0.5,0],[1,0.75,0],[0.75,1,0],[0.5,1,0],[0.25,1,0],[0,0.75,0],[0,0.5,0],[0,0.25,0]];shape=mxgraph.bpmn.task2;whiteSpace=wrap;rectStyle=rounded;size=10;html=1;container=1;expand=0;collapsible=0;taskMarker=send;fillColor=#f8cecc;strokeColor=#b85450;fontStyle=1;fontFamily=Times New Roman;" parent="1" vertex="1">
          <mxGeometry x="261" y="2432" width="120" height="80" as="geometry" />
        </mxCell>
        <mxCell id="fxXYQwQmjacuaRkCVRKY-47" value="End" style="points=[[0.145,0.145,0],[0.5,0,0],[0.855,0.145,0],[1,0.5,0],[0.855,0.855,0],[0.5,1,0],[0.145,0.855,0],[0,0.5,0]];shape=mxgraph.bpmn.event;html=1;verticalLabelPosition=bottom;labelBackgroundColor=#ffffff;verticalAlign=top;align=center;perimeter=ellipsePerimeter;outlineConnect=0;aspect=fixed;outline=end;symbol=terminate;fontStyle=1;fontFamily=Times New Roman;" parent="1" vertex="1">
          <mxGeometry x="296" y="2562" width="50" height="50" as="geometry" />
        </mxCell>
        <mxCell id="fxXYQwQmjacuaRkCVRKY-48" style="edgeStyle=orthogonalEdgeStyle;rounded=0;orthogonalLoop=1;jettySize=auto;html=1;entryX=0.5;entryY=0;entryDx=0;entryDy=0;entryPerimeter=0;strokeColor=#FF0000;flowAnimation=1;fontStyle=1;fontFamily=Times New Roman;" parent="1" source="fxXYQwQmjacuaRkCVRKY-46" target="fxXYQwQmjacuaRkCVRKY-47" edge="1">
          <mxGeometry relative="1" as="geometry" />
        </mxCell>
        <mxCell id="fxXYQwQmjacuaRkCVRKY-50" value="Provide Information" style="points=[[0.25,0,0],[0.5,0,0],[0.75,0,0],[1,0.25,0],[1,0.5,0],[1,0.75,0],[0.75,1,0],[0.5,1,0],[0.25,1,0],[0,0.75,0],[0,0.5,0],[0,0.25,0]];shape=mxgraph.bpmn.task2;whiteSpace=wrap;rectStyle=rounded;size=10;html=1;container=1;expand=0;collapsible=0;taskMarker=user;fillColor=#f8cecc;strokeColor=#b85450;fontFamily=Times New Roman;fontStyle=1" parent="1" vertex="1">
          <mxGeometry x="789" y="1927" width="120" height="80" as="geometry" />
        </mxCell>
        <mxCell id="fxXYQwQmjacuaRkCVRKY-51" style="edgeStyle=orthogonalEdgeStyle;rounded=0;orthogonalLoop=1;jettySize=auto;html=1;entryX=0;entryY=0.5;entryDx=0;entryDy=0;entryPerimeter=0;strokeColor=#FF0000;flowAnimation=1;fontFamily=Times New Roman;fontStyle=1" parent="1" source="fxXYQwQmjacuaRkCVRKY-24" target="fxXYQwQmjacuaRkCVRKY-50" edge="1">
          <mxGeometry relative="1" as="geometry" />
        </mxCell>
        <mxCell id="fxXYQwQmjacuaRkCVRKY-53" value="End" style="points=[[0.145,0.145,0],[0.5,0,0],[0.855,0.145,0],[1,0.5,0],[0.855,0.855,0],[0.5,1,0],[0.145,0.855,0],[0,0.5,0]];shape=mxgraph.bpmn.event;html=1;verticalLabelPosition=bottom;labelBackgroundColor=#ffffff;verticalAlign=top;align=center;perimeter=ellipsePerimeter;outlineConnect=0;aspect=fixed;outline=end;symbol=terminate;fontFamily=Times New Roman;fontStyle=1" parent="1" vertex="1">
          <mxGeometry x="995" y="1944" width="50" height="50" as="geometry" />
        </mxCell>
        <mxCell id="fxXYQwQmjacuaRkCVRKY-55" style="edgeStyle=orthogonalEdgeStyle;rounded=0;orthogonalLoop=1;jettySize=auto;html=1;entryX=0;entryY=0.5;entryDx=0;entryDy=0;entryPerimeter=0;strokeColor=#FF0000;flowAnimation=1;fontFamily=Times New Roman;fontStyle=1" parent="1" source="fxXYQwQmjacuaRkCVRKY-50" edge="1">
          <mxGeometry relative="1" as="geometry">
            <mxPoint x="994" y="1967" as="targetPoint" />
          </mxGeometry>
        </mxCell>
        <mxCell id="fxXYQwQmjacuaRkCVRKY-64" style="edgeStyle=orthogonalEdgeStyle;rounded=0;orthogonalLoop=1;jettySize=auto;html=1;entryX=0;entryY=0.5;entryDx=0;entryDy=0;entryPerimeter=0;strokeColor=#FF0000;flowAnimation=0;align=center;fontStyle=0;fontSize=11;labelPosition=center;verticalLabelPosition=middle;verticalAlign=middle;fontFamily=Times New Roman;" parent="1" edge="1">
          <mxGeometry relative="1" as="geometry">
            <mxPoint x="117" y="846" as="sourcePoint" />
            <mxPoint x="177" y="846" as="targetPoint" />
            <Array as="points">
              <mxPoint x="114" y="846" />
              <mxPoint x="114" y="846" />
            </Array>
          </mxGeometry>
        </mxCell>
        <mxCell id="fxXYQwQmjacuaRkCVRKY-65" value="" style="points=[[0.25,0.25,0],[0.5,0,0],[0.75,0.25,0],[1,0.5,0],[0.75,0.75,0],[0.5,1,0],[0.25,0.75,0],[0,0.5,0]];shape=mxgraph.bpmn.gateway2;html=1;verticalLabelPosition=middle;labelBackgroundColor=#ffffff;verticalAlign=middle;align=center;perimeter=rhombusPerimeter;outlineConnect=0;outline=none;symbol=none;gwType=exclusive;fillColor=#fff2cc;strokeColor=#d6b656;fontStyle=0;fontSize=11;labelPosition=center;fontFamily=Times New Roman;" parent="1" vertex="1">
          <mxGeometry x="130" y="466" width="50" height="50" as="geometry" />
        </mxCell>
      </root>
    </mxGraphModel>
  </diagram>
</mxfile>
